M48
;DRILL file {PCBnew (2010-08-11 BZR 2448)-unstable} date Thu 16 Jun 2011 10:25:38 CST
;FORMAT={2:4/ absolute / inch / suppress leading zeros}
R,T
VER,1
FMAT,2
INCH,TZ
TCST,OFF
ICI,OFF
ATC,ON
T1C0.012
T2C0.025
T3C0.035
T4C0.039
%
M47
G05
M72
T1
X39690Y-45570
X39810Y-42790
X39850Y-49300
X39940Y-44780
X39941Y-40650
X39950Y-44430
X40180Y-44150
X40400Y-48880
X40620Y-45180
X40650Y-44870
X40720Y-47400
X40770Y-44160
X40810Y-45810
X40820Y-46830
X40890Y-42630
X40970Y-47670
X40990Y-42120
X41040Y-44930
X41070Y-50880
X41180Y-43980
X41410Y-47320
X41560Y-44170
X41680Y-41100
X41690Y-48860
X41810Y-49730
X41870Y-45000
X41890Y-49440
X41960Y-47680
X41970Y-48440
X42140Y-50400
X42260Y-41090
X42500Y-49430
X42510Y-48760
X42804Y-50676
X42880Y-44010
X42900Y-49550
X43248Y-42854
X43330Y-47650
X43330Y-48430
X43362Y-49874
X43400Y-45440
X43580Y-49320
X44094Y-43110
X44110Y-47960
X44598Y-49498
X44760Y-49210
X44890Y-42470
X45000Y-41024
X45120Y-49340
X45320Y-47170
X45392Y-51466
X45420Y-46570
X45430Y-49070
X45550Y-41190
X45591Y-39705
X45636Y-46314
X45678Y-45528
X45688Y-45032
X45866Y-42126
X45994Y-51458
X46290Y-43850
X46512Y-49438
X46590Y-49070
T2
X40730Y-39930
X43010Y-42340
X43625Y-40875
X44360Y-40310
X44940Y-41670
T3
X46496Y-44366
X46496Y-45366
X46496Y-46366
X46496Y-47366
T4
X41123Y-41015
X42777Y-41015
T0
M30
